<?xml version="1.0" encoding="UTF-8"?>
<!DOCTYPE svg PUBLIC "-//W3C//DTD SVG 1.1//EN" "http://www.w3.org/Graphics/SVG/1.1/DTD/svg11.dtd">
<!-- Creator: CorelDRAW 2020 (64 Bit) -->
<svg xmlns="http://www.w3.org/2000/svg" xml:space="preserve" width="210mm" height="297mm" version="1.1" style="shape-rendering:geometricPrecision; text-rendering:geometricPrecision; image-rendering:optimizeQuality; fill-rule:evenodd; clip-rule:evenodd"
viewBox="0 0 21000 29700"
 xmlns:xlink="http://www.w3.org/1999/xlink"
 xmlns:xodm="http://www.corel.com/coreldraw/odm/2003">
 <defs>
  <style type="text/css">
   <![CDATA[
    .fil4 {fill:#FEFEFE}
    .fil3 {fill:#FEFEFE;fill-rule:nonzero}
    .fil1 {fill:url(#id5)}
    .fil0 {fill:url(#id6)}
    .fil2 {fill:url(#id7);fill-rule:nonzero}
    .fil5 {fill:url(#id8);fill-rule:nonzero}
   ]]>
  </style>
   <clipPath id="id0">
    <path d="M5727.69 18391.7c-1955.73,-2631.74 -1407.72,-6350.62 1224.01,-8306.35 2631.74,-1955.73 6350.62,-1407.72 8306.35,1224.01 1955.73,2631.74 1407.72,6350.62 -1224.02,8306.35 -2631.73,1955.73 -6350.61,1407.72 -8306.34,-1224.01zm215.38 -1415.86c-4.17,-15.62 -12.2,-31.51 -25.02,-47.06 -4.45,-5.41 -9.1,-10.11 -13.87,-14.27 -9.87,-18.29 -21.15,-40.78 -41.52,-78.28l-77 -93.45c-108.14,-73.06 -226.28,80.62 -98.54,191.69l61.77 110.82 73.21 104.07 70.36 134.05c5.4,14.79 22.44,52.44 41.66,91.06 1.31,22.44 10.41,45.09 29.2,64.33l11.96 11.96c6.81,11.16 12.93,20.11 17.79,25.53 14.95,23.72 17.6,9.53 33.5,47.15 49.22,116.51 259.5,57.73 186.28,-93.82 -27.16,-56.26 -32.07,-33.14 -61.55,-81.63 -2.58,-4.26 -5.62,-8.73 -9.03,-13.29l-1.8 -3.68 -72.51 -152.67 -97.56 -166.12c-11.07,-14.42 -19.93,-26.21 -27.33,-36.39z"/>
   </clipPath>
   <clipPath id="id1">
    <path d="M10492.87 9795.93c2791.58,0 5054.6,2263.02 5054.6,5054.6 0,2791.58 -2263.02,5054.6 -5054.6,5054.6 -2791.58,0 -5054.6,-2263.02 -5054.6,-5054.6 0,-2791.58 2263.02,-5054.6 5054.6,-5054.6z"/>
   </clipPath>
    <clipPath id="id2">
     <path d="M5746.27 10122.18l9483.38 0 42.55 6013.79 -9483.38 0 -42.55 -6013.79z"/>
    </clipPath>
   <clipPath id="id3">
    <path d="M4856.32 14852.49l11253.11 0 -3.05 117.02 -556.15 0 0 529.89c-20.74,96.76 -56.35,262.43 -99.07,461.47 -35.46,93.68 -68.95,200.41 -87.5,284.31 -11.99,30.39 -22.31,62.04 -30.74,94.95l-0.47 0.92c-34.17,70.91 -54.82,138.29 -66.34,209.81l-457.65 1132.72 -268.46 464.98 -8587.34 0c22.24,-70.7 35.7,-144.38 39.52,-219.46l289.56 -116.99 -342.71 -848.24 -144.2 -538.16 -212.01 -1202.33 -33.49 2.64 -67.05 5.29 -265.79 46.87c-10.99,-16.47 -23.99,-32.56 -45.08,-47.03l-44.45 -21.16 -35.13 -33.45c-37.7,-52.33 -85.51,-105.78 -146.94,-158.95 -22.9,-19.82 -46.46,-38.15 -70.44,-55.34 -7.99,-28.21 -13.59,-54.93 -18.13,-109.76z"/>
   </clipPath>
   <clipPath id="id4">
    <path d="M6675.39 15286.6l53.91 1653.42 10.57 -0.34 8.62 264.43 11.96 41.98 2.52 77.32 -44.21 1.44 0.18 5.3 -5.29 0.17 0.17 5.28 -21.16 0.69 0.17 5.29 -15.86 0.52 0.17 5.29 -52.71 7.01 -5.12 5.46 -111.06 3.62 -16.38 -15.35 0.52 15.87 -126.94 4.13 0.17 5.3 -31.73 1.04c-17.4,18.56 -74.19,13 -100.15,13.85l-37.03 1.2 -5.11 5.46 -15.86 0.52 -5.12 5.46 -21.16 0.69 -5.11 5.46 -48.3 1.58 -26.89 -55.46 -61.17 -114.91c-18.33,-22.22 -49.74,-108.62 -76.42,-144.39l-72.12 -156.11 -34.22 -94.26 -63.5 -158.75 -30.4 -101.08 -39.75 -125.19 -26.46 -68.79c-13.71,-28.55 -8.48,-61.12 -23.21,-89.95l-34.98 -100.52 -2 -4.11c-5.02,-27.45 -13.21,-56.42 -22.47,-84.83l-1.81 -7.51 -25.37 -74.73 -1.37 -9.17c-0.12,-20.06 -2.78,-40.77 -5.78,-60.44l-6.64 -22.76 -11.26 -75.43 -21.53 -119.3 -24.08 -105.31 -12.6 -74.37c-0.48,-4.75 -1.17,-9.31 -2.06,-13.7 0.16,-41.22 -1.24,-97.9 -44.25,-124.69l-17.52 -83.39 926.96 -30.22 340.24 -22.72z"/>
   </clipPath>
  <linearGradient id="id5" gradientUnits="userSpaceOnUse" x1="6344.58" y1="13274.25" x2="16345.83" y2="13247.79">
   <stop offset="0" style="stop-opacity:1; stop-color:#7388C3"/>
   <stop offset="0.431373" style="stop-opacity:1; stop-color:#8059BA"/>
   <stop offset="1" style="stop-opacity:1; stop-color:#8D29B1"/>
  </linearGradient>
  <radialGradient id="id6" gradientUnits="userSpaceOnUse" gradientTransform="matrix(-1.10805 -0.982593 1.18091 -0.988565 5991 41076)" cx="11288.64" cy="15078.34" r="5011.86" fx="11288.64" fy="15078.34">
   <stop offset="0" style="stop-opacity:1; stop-color:#883AB4"/>
   <stop offset="0.741176" style="stop-opacity:1; stop-color:#7F53AF"/>
   <stop offset="1" style="stop-opacity:1; stop-color:#776CAA"/>
  </radialGradient>
  <linearGradient id="id7" gradientUnits="userSpaceOnUse" x1="4738.25" y1="16465.64" x2="16467.48" y2="16392.71">
   <stop offset="0" style="stop-opacity:1; stop-color:#8D29B1"/>
   <stop offset="0.490196" style="stop-opacity:1; stop-color:#8058BA"/>
   <stop offset="1" style="stop-opacity:1; stop-color:#7388C3"/>
  </linearGradient>
  <linearGradient id="id8" gradientUnits="userSpaceOnUse" xlink:href="#id7" x1="4588.97" y1="16534.49" x2="16309.59" y2="16079.35">
  </linearGradient>
 </defs>
 <g id="Camada_x0020_1">
  <metadata id="CorelCorpID_0Corel-Layer"/>
  <g style="clip-path:url(#id0)">
   <image transform="matrix(-0.96985 -1.30508 1.30508 -0.96985 14763.3 55018.1)" x="0" y="0" width="25400" height="16933.32" xlink:href="Logogalatico_Images\Logogalatico_ImgID1.png"/>
  </g>
  <polygon class="fil0" points="10492.87,9155.23 10828.36,9518.06 11206.68,9200.14 11494.05,9602.15 11909.23,9334.15 12143.95,9769.02 12589.45,9555.17 12767.82,10016.02 13236.61,9859.7 13355.8,10339.27 13840.49,10242.93 13898.64,10733.66 14391.57,10698.84 14387.76,11192.98 14881.18,11220.21 14815.46,11709.98 15301.57,11798.83 15174.99,12276.51 15646.13,12425.59 15460.69,12883.64 15909.43,13090.58 15668.03,13521.78 16087.29,13783.34 15793.76,14180.87 16176.93,14492.92 15835.89,14850.53 16176.93,15208.14 15793.76,15520.19 16087.29,15917.72 15668.03,16179.28 15909.42,16610.48 15460.69,16817.42 15646.13,17275.48 15174.99,17424.55 15301.57,17902.23 14815.46,17991.08 14881.18,18480.86 14387.76,18508.08 14391.57,19002.22 13898.64,18967.4 13840.49,19458.13 13355.8,19361.79 13236.61,19841.36 12767.82,19685.04 12589.45,20145.89 12143.95,19932.04 11909.23,20366.91 11494.05,20098.91 11206.68,20500.92 10828.36,20183 10492.87,20545.83 10157.38,20183 9779.06,20500.92 9491.69,20098.91 9076.51,20366.91 8841.79,19932.04 8396.29,20145.89 8217.92,19685.04 7749.13,19841.36 7629.94,19361.79 7145.25,19458.13 7087.1,18967.4 6594.17,19002.22 6597.98,18508.08 6104.56,18480.85 6170.28,17991.08 5684.17,17902.23 5810.75,17424.55 5339.61,17275.47 5525.05,16817.42 5076.31,16610.48 5317.71,16179.28 4898.45,15917.72 5191.98,15520.19 4808.81,15208.14 5149.85,14850.53 4808.81,14492.92 5191.98,14180.87 4898.45,13783.34 5317.71,13521.78 5076.32,13090.58 5525.05,12883.64 5339.61,12425.58 5810.75,12276.51 5684.17,11798.83 6170.28,11709.98 6104.56,11220.2 6597.98,11192.98 6594.17,10698.84 7087.1,10733.66 7145.25,10242.93 7629.94,10339.27 7749.13,9859.7 8217.92,10016.02 8396.29,9555.17 8841.79,9769.02 9076.51,9334.15 9491.69,9602.15 9779.06,9200.14 10157.38,9518.06 "/>
  <g style="clip-path:url(#id1)">
   <image x="-19124.48" y="-2629.28" width="35162.44" height="23441.61" xlink:href="Logogalatico_Images\Logogalatico_ImgID2.png"/>
  </g>
  <g id="_2442694663056">
   <g style="clip-path:url(#id2)">
    <image x="5746.27" y="10122.18" width="9525.93" height="6013.79" xlink:href="Logogalatico_Images\Logogalatico_ImgID3.png"/>
   </g>
  </g>
  <path class="fil1" d="M6582.36 15704.96l2061.45 0c7.9,-131.82 -4.23,-448.67 -18.68,-582.11 -25.59,-236.47 -91.6,-425.55 -228.57,-599.77 -30.48,-38.77 -82.74,-86.75 -103.9,-121.91 -124.37,-206.63 -187.55,-478.19 -149.65,-732.1 6.55,-43.87 9.53,-91.35 13.89,-136.75 8.76,-91.25 17.49,-183.72 26.17,-274.76 17.48,-183.36 36.65,-366.93 52.47,-549.88 15.84,-183.14 36.42,-367.53 52.44,-550.28 4.03,-46 8.45,-91.49 13.14,-137.58 3.24,-31.78 -2.16,-39.52 21.4,-53.8 19.52,-11.83 41.69,-9.42 49.33,10.07 7.63,19.45 12.35,1039.89 16.42,1186.76 2.75,99.25 -0.12,199.69 3.81,298.3 1.94,48.53 15.1,85.49 59.12,91.88 88.66,12.87 58.46,-53.83 56.98,-80.19 -3.58,-64.15 5.45,-222.34 7.79,-295.63 6.13,-192.72 13.4,-388.79 18.53,-581.96 5.15,-193.98 15.28,-388.9 19.9,-582.08 0.88,-36.65 -3.02,-38.83 20.6,-55.32 19.31,-13.48 40.85,-10.82 48.03,10.48 6.04,17.91 44.02,1283.99 48.42,1458.06 1.25,49.6 4.76,92.13 44.5,108.31 94.34,38.4 61.41,-168.57 61.5,-218.36 0.19,-100.39 -1,-200.79 -0.55,-301.18 0.2,-43.71 -1.07,-1029.62 8.48,-1046.8 6.79,-12.21 29.07,-30.31 51.72,-20.3 19.25,8.51 15.65,33.91 16.94,58.41 20,378.61 50.33,753.88 72.59,1131.85 5.56,94.3 11.26,189.79 18.17,282.22 3.59,47.98 4.31,93.23 43.3,108.54 52.19,20.51 76.62,-16.03 78.26,-62.1 3.41,-96.16 -0.55,-201.69 -2.89,-298.33 -2.36,-97.68 -3.97,-196.35 -5.13,-295.5 -2.31,-197.76 -10.16,-395.61 -11.08,-593.55 -0.45,-98.49 -4.11,-197.22 -5.8,-295.63 -0.28,-16.43 3.17,-17.67 12.75,-24.78 7.49,-5.57 15.3,-11.16 27.78,-10.62 27.98,1.22 26.58,23.26 29.47,47.18 5.41,44.75 10.94,88.93 16.58,133.7l133.37 1071.52c34.18,273.58 63.84,840.24 -70.78,1081.14 -31.32,56.06 -81.23,131.91 -120.82,180.38 -13.16,16.09 -23.44,25.14 -36.18,39.08 -89.85,98.25 -152.05,211.05 -178.31,348.49 -18.91,98.95 -9.17,183.98 -4.05,283.59 9.76,189.98 21.79,380.55 35.29,570.38l1194.06 0.94c4.84,-71.95 -3.08,-183.33 -3.5,-260.07 -0.48,-88.36 -4.23,-175.38 -5.14,-263.6 -0.53,-51.17 -27.69,-170 -38.12,-227.96 -13.65,-75.87 -26.54,-153.71 -38.58,-230.32 -96.32,-613.19 -156.24,-1366.11 -29.17,-1973.22 32.02,-153 70.37,-276.07 125.77,-410.15 51.35,-124.26 134.81,-250.42 218.47,-317.32 40.04,-32.02 108.32,-81.57 177.67,-88.37 63.05,-6.19 101.8,21.58 129.86,66.58 13.11,21.01 9.54,32.38 9.55,58.97 0.04,88.62 -2.91,177.92 -2.91,266.42 -0.01,87.29 1.04,179.55 -2.58,266.43 -3.6,86.47 -1.34,176.52 -2.13,263.53 -2.39,265.04 -2.56,531.28 -8.38,796.38 -7.78,354.03 -3.92,707.89 -10.87,1062.16 -1.7,87.02 1.26,166.84 -12.93,252.2 -32.5,195.56 -54.62,265.6 -62.05,475.43 -1.5,42.54 -1.38,84.64 -2.52,127.31 -0.94,35.31 -4.2,101.53 0.16,134.21l1488.57 1.39c16.26,-211.12 12.64,-451.53 -25.76,-659.17 -29.02,-156.87 -102.84,-376.67 -235.95,-461.97 -28.59,-18.32 -48.06,-36.4 -71.88,-58.42 -7.18,-6.65 -14.03,-16.01 -21.3,-22.12 -31.79,-26.74 -57.83,-57.33 -84.27,-89.38 -50.18,-60.81 -100.04,-128.99 -143,-207.47 -196.83,-359.56 -192.03,-776.12 -88.22,-1167.44 24.13,-90.95 51.43,-179.22 78.16,-269.4 26.26,-88.58 63.44,-171.01 98.12,-252.29 68,-159.41 164.48,-320.72 258.41,-439.59l81.63 -92.12c468.19,-468.48 851.94,166.01 1025.55,564.52 151.92,348.76 253.37,736.81 177.56,1165.76 -40.61,229.77 -130.08,443.2 -253.01,618.51 -45.24,64.51 -139.98,188.81 -203.09,231.33 -18.82,12.67 -35.54,22.59 -54,35.77 -247.89,176.93 -293.93,452.76 -287.07,762.27 1.26,56.93 3.89,113.82 3.88,170.86 -0.01,42.83 -0.72,131.98 6.31,170.34l2130.37 0c19.85,-67.52 34.41,-164.38 45.67,-234.92 95.15,-595.87 56.82,-1183.58 -105.23,-1760.65 -39.53,-140.74 -91.87,-289.91 -145.62,-416.15 -52.6,-123.54 -115.53,-264.99 -181.38,-380.41 -126.12,-221.06 -237.94,-395.48 -391.95,-589.68l-111.79 -134.53c-72.75,-82.21 -145.52,-156.99 -223.39,-234.08l-70.22 -68.73c-15.4,-16.46 -37.42,-32.96 -55.23,-49.18l-94.14 -82.41c-75.89,-66.71 -155.88,-124.27 -237.86,-184.94 -53.48,-39.58 -109.65,-74.92 -166.76,-114.1 -100.42,-68.91 -250.5,-152.12 -356.83,-205.11 -243.86,-121.52 -520.71,-236.53 -815.14,-308.38 -674.06,-164.51 -1325.9,-170.38 -2001.33,-0.11 -145.1,36.58 -291.48,82.97 -426.28,135.42 -68.96,26.84 -133.85,53.2 -198.93,81.96 -313.4,138.51 -606.27,319.29 -873.48,531.01 -26.21,20.77 -50.87,40.15 -76.32,62.63 -25.4,22.45 -52.25,42.91 -76.78,65.29 -97.59,89.03 -197,177.97 -283.87,277.92l-67.71 74.08c-44.92,44.63 -157.4,188.19 -190.57,232.28 -300.08,398.77 -510.27,814.14 -657.71,1308.63 -173.55,582.09 -205.63,1273.77 -83.54,1878.03 6.79,33.63 14.07,84.75 24.52,116.13z"/>
  <g style="clip-path:url(#id3)">
   <image x="4856.32" y="14852.49" width="11253.11" height="3296.07" xlink:href="Logogalatico_Images\Logogalatico_ImgID4.png"/>
  </g>
  <path class="fil2" d="M5629.28 15486.84c3306.98,-864.5 6613.95,950.79 9920.95,-183.62l0 196.18c-20.74,96.76 -56.37,262.45 -99.09,461.51 -35.45,93.68 -68.93,200.38 -87.48,284.27 -11.99,30.39 -22.31,62.04 -30.74,94.95l-0.47 0.92c-34.16,70.9 -54.81,138.27 -66.34,209.78l-374.8 927.68c-2929.52,679.95 -5859.03,-659.92 -8788.55,-109.38l-163.73 -405.25 -144.2 -538.16 -165.55 -938.88z"/>
  <path class="fil3" d="M8105.98 15799.34c58.62,-7.93 115.24,-5.38 167.96,5.92 23.24,4.97 39.8,7.74 48.67,6.98 8.91,-0.78 27.87,-7.81 56.38,-20.74 9.45,-4.28 19,-6.62 29.09,-7.45 25.51,-2.16 49.7,11.44 73,40.24 38.4,47.46 58.31,100.76 59.36,159.56 0.72,40.24 -9.05,73.19 -28.49,99.06 -19.13,25.45 -45.71,39.62 -77.75,41.59 -26.7,1.63 -52.32,-6.42 -77.76,-24.48 -7.79,-5.54 -27,-26.24 -57.57,-61.34 -50.13,-57.57 -108.11,-83.48 -173.3,-76.4 -58.84,6.4 -105.2,33.9 -140.07,80.26 -34.55,45.94 -51.38,104.72 -51.04,175.83 0.25,52.77 7.13,101.13 20.77,145.21 13.64,44.11 35.04,84.12 63.5,120.04 20.78,26.25 46.38,46.86 75.98,61.82 29.76,15.03 58.76,22.47 87.84,21.33 23.12,-0.89 42.63,-9.61 57.56,-25.79 15.33,-16.58 22.88,-37.24 22.57,-61.94 -0.26,-22.03 -6.72,-37.16 -19.59,-45.79 -4.91,-3.3 -9.48,-5.47 -13.65,-5.92 -4.72,-0.51 -17.8,-0.16 -39.76,0.98 -19.57,1.01 -35.52,-4.57 -48.67,-16.15 -13.55,-11.91 -20.19,-27.13 -20.19,-46.17 0,-37.6 24.87,-66.21 74.78,-85.32 55.12,-21.12 118.73,-33.93 191.12,-37.84 76.56,-4.15 141.34,0.86 194.07,15.67 49.34,13.86 74.79,41.94 74.79,83.87 0,16.88 -4.96,31.43 -16.62,44.47 -11.48,12.86 -25.57,20.61 -43.92,23.63 -16.07,2.63 -26.4,6.98 -30.87,12.05 -4.42,5.04 -9.96,17.14 -14.84,36.51 -18.85,74.73 -54.84,138.32 -110.38,189.58 -38.23,35.26 -86.01,62.58 -141.85,82.55 -56.32,20.14 -116.92,30.51 -178.05,31.56 -100.3,1.71 -190.88,-19.47 -275.41,-61.58 -85.79,-42.72 -151.49,-101.47 -197.04,-176.67 -37.52,-61.92 -55.78,-129.19 -55.78,-203.06 0,-74.73 21.85,-148.47 65.88,-223.07 47.95,-81.23 113.47,-150.29 197.05,-205.35 74.28,-48.92 157.74,-80.89 252.23,-93.65zm975.74 225.24c78.95,0.77 146.1,23.18 201.8,66.29 29.75,23.03 50.73,48.95 62.91,77.6 12.15,28.58 18.65,67.98 19,117.5 0.23,34.93 0.01,69.78 0.59,104.62 1.18,72.53 7.64,119.83 18.4,141.36 5.26,10.51 10.75,17.03 15.43,19.99 4.8,3.05 14.25,5.61 29.08,8.44 15.41,2.93 22.47,12.91 23.75,30.14 1.67,22.53 -5.51,45.47 -21.37,69.17 -16.17,24.13 -37.05,44.65 -64.7,60.01 -37.03,20.55 -78.34,29.48 -116.34,29.16 -48.04,-0.39 -80.01,-17.19 -107.42,-51.21 -9.97,-12.37 -19.6,-18.4 -27.89,-18.44 -9.5,-0.06 -20.5,5.98 -35.61,17.48 -46,35.01 -103.88,52.11 -162.63,52.53 -59.35,0.42 -103.76,-12.18 -140.06,-37.84 -24.22,-17.1 -45.13,-39.65 -60.54,-67.36 -15.43,-27.71 -24.02,-56.77 -24.93,-87.37 -1.45,-49.03 17.79,-92.59 55.19,-131.12 58.74,-60.51 148.38,-91.86 267.68,-93.03 26.1,-0.26 42.87,-2.41 49.86,-7.96 6.65,-5.28 9.82,-18.08 9.5,-37.85 -0.84,-49.86 -6.27,-86.26 -16.62,-108.57 -10.4,-22.41 -27.32,-33.76 -49.26,-33.63 -14.25,0.09 -26.55,4.65 -36.8,13.02 -10.51,8.6 -24.5,23.91 -39.77,46.88 -39.91,60.04 -81.9,90.4 -125.82,91.35 -22.55,0.48 -40.27,-5.99 -54.61,-19.4 -14.15,-13.21 -21.68,-30.99 -21.96,-52.91 -0.29,-22.66 8.29,-45.58 25.53,-68.57 17.18,-22.92 40.56,-43.82 70.63,-61.22 80.91,-46.83 166.8,-69.94 256.98,-69.06zm-39.76 409.03c-20.16,-0.33 -37.94,8.72 -52.24,25.9 -14.16,17.03 -21.96,37.39 -21.35,60.98 0.57,22.78 7.06,40.8 18.39,54.72 11.2,13.78 24.92,20.68 42.74,20.61 36.78,-0.15 53.14,-31.94 51.04,-95.45 -0.87,-26.14 -3.6,-43.51 -8.91,-52.43 -5.35,-9.01 -15.44,-14.09 -29.67,-14.33zm834.48 -225.61c1.22,73.52 2.97,147.16 4.75,220.67 2.36,97.62 7.7,154.51 11.87,170.88 4.12,16.15 16.5,29.61 36.8,39.53 17.67,8.63 29.56,16.13 36.21,23.14 6.38,6.71 10.22,15.91 11.26,27.83 1.31,14.94 -2.85,28.42 -12.46,40.01 -9.95,12.02 -25.02,19.15 -43.92,23.15 -35.71,7.56 -93.76,9.25 -172.12,5.42 -89,-4.34 -148.32,-13.75 -181.61,-28.09 -15.95,-6.86 -30.31,-16.49 -41.54,-29.64 -11.3,-13.23 -16.84,-26.66 -17.82,-40.61 -0.78,-11.1 0.67,-19.85 5.95,-25.55 5.38,-5.85 17.19,-12.96 35.6,-20.48 17.78,-7.28 26.26,-28.6 28.49,-63.63 1.92,-30.04 3.86,-66.54 4.75,-109.43 0.88,-42.79 1.75,-92.19 0.59,-147.99 -2.39,-113.4 -7.45,-186.5 -14.25,-219.35 -6.84,-33.05 -23.48,-58.14 -49.85,-75.31 -19.33,-12.6 -33.01,-23.77 -40.36,-34.11 -7.47,-10.5 -11.41,-22.89 -11.87,-37.36 -0.72,-22.87 9.79,-41.74 30.27,-57.71 19.87,-15.48 53.34,-29.6 99.13,-40.27 30.75,-7.16 70.61,-12.83 119.88,-17.1 49.23,-4.27 85.47,-4.47 107.43,-2.06 36.19,3.97 55.49,28.44 58.16,73.16 0.87,14.8 0.07,48.1 -1.78,100.51 -2.88,81.1 -4.69,156.19 -3.56,224.39zm505.68 -74.71c79.57,12.55 147.66,43.63 203.57,91.22 30.14,25.68 52.15,52.49 64.7,81.35 12.38,28.48 19.14,66.65 20.17,113.76 0.72,33.13 0.84,66.3 1.79,99.31 1.99,69.06 8.25,114.67 20.17,136.3 5.88,10.68 11.84,17.16 16.62,20.37 5.29,3.53 14.81,6.98 29.68,10.96 14.78,3.96 22.87,14.25 24.92,30.61 2.68,21.36 -3,42.52 -17.8,63.51 -14.85,21.06 -35.31,38.36 -62.92,49.42 -38.27,15.32 -84.27,19.24 -121.67,13.97 -48.06,-6.77 -74.85,-28.43 -102.08,-64.23 -10.16,-13.35 -20.16,-20.13 -29.09,-21.33 -8.85,-1.2 -19.81,3.15 -34.42,11.8 -45.93,27.25 -109.81,37.2 -167.96,30.62 -59.94,-6.78 -98.98,-24.5 -134.13,-52.43 -24.8,-19.68 -46.66,-43.02 -63.51,-71.22 -16.96,-28.42 -27.03,-57.22 -29.08,-86.88 -3.28,-47.58 14.46,-87.32 52.22,-120.17 58.36,-50.78 147.22,-69.38 265.91,-54.34 26.71,3.38 42.79,3.7 49.84,-0.36 7.18,-4.12 9.4,-15.91 8.91,-34.71 -1.27,-47.59 -7.35,-82.59 -17.8,-105.57 -10.31,-22.68 -27.3,-36.15 -49.86,-39.29 -13.63,-1.91 -26.14,0.61 -36.21,7.23 -10.09,6.62 -23.74,19.53 -38.58,39.17 -39.15,51.82 -80.71,74.97 -125.22,70.14 -21.95,-2.39 -40.42,-10.71 -55.21,-25.66 -14.27,-14.44 -21.38,-32.93 -21.95,-54 -0.59,-21.95 7.54,-42.92 24.33,-62.54 17.03,-19.9 39.89,-36.99 69.45,-49.18 80.26,-33.12 166.26,-41.88 255.21,-27.83zm-33.24 382.51c-20.08,-3.07 -37.63,3.55 -51.63,17.71 -14.48,14.63 -21.41,32.92 -20.19,55.55 1.14,21.57 8.3,39.56 20.19,54.11 11.84,14.48 26.13,22.65 43.92,24.95 36.81,4.8 51.24,-22.76 47.47,-83.15 -1.56,-24.92 -4.75,-41.83 -10.09,-51.11 -5.32,-9.27 -15.33,-15.86 -29.67,-18.06zm55.2 -666.8c41.01,6.89 78.75,20.19 112.17,37.47 16.43,8.5 30.48,18.29 41.55,30.74 10.87,12.24 16.23,23.88 16.62,34.47 0.77,20.25 -16.1,41.49 -51.65,63.62 -65.93,41.01 -140.01,54.28 -223.75,41.46 -46.82,-7.18 -70.09,-27.02 -71.81,-60.14 -0.64,-12.44 1.11,-21 5.34,-26.52 4.07,-5.31 16.88,-15.26 38.58,-28.79 19.26,-12.01 31.57,-19.68 35.62,-23.62 4.24,-4.12 6.28,-8.82 5.92,-15.31 -0.21,-4 -4.21,-11.31 -10.08,-21.69 -1.82,-3.22 -3.3,-6.89 -3.57,-10.48 -0.89,-11.22 7.68,-19.28 27.31,-23.15 19.52,-3.83 45.77,-3.44 77.75,1.94zm793.53 553.27c3.05,75.18 4.65,150.3 7.71,225.49 1.08,26.66 9.14,49.19 23.75,66.4 15.05,17.72 33.24,26.56 54.59,27.47 17.8,0.75 41.14,-6.01 68.26,-20.97 6.71,-3.7 13.65,-5.59 20.17,-5.42 11.27,0.3 21.49,7.05 32.07,20.13 10.77,13.3 16.31,27.64 18.39,42.66 3.84,27.62 -6.33,54.51 -33.84,78.57 -59.13,51.74 -155.53,74.56 -248.09,68.57 -73.02,-4.72 -116.85,-30.51 -163.21,-73.76 -48.62,-45.34 -81.65,-99.19 -86.65,-164.98 -3.88,-51.12 -5.04,-102.43 -6.53,-153.66 -1.47,-51.2 -3.27,-102.42 -4.75,-153.76 -0.29,-10.23 -1.78,-16.76 -4.16,-19.53 -2.37,-2.77 -8.89,-4.48 -19.58,-5.66 -23.13,-2.55 -46.89,-5.32 -70.04,-8.08 -13.04,-1.56 -22.31,-4.37 -26.1,-9.39 -3.31,-4.37 -5.24,-14.72 -5.95,-30.14 -0.46,-9.87 -1.18,-19.64 -1.18,-29.4 0,-13.5 4.08,-22.65 13.64,-27.59 100.83,-52.18 201.44,-107.33 301.51,-162.58 7.37,-4.05 16.62,-5.04 27.9,-4.46 18.38,0.96 36.23,1.8 55.19,2.77 11.28,0.57 19.29,3.3 23.74,8.91 3.87,4.87 6.74,15.55 7.72,30.62 1.96,29.99 4.3,60.02 5.94,90.03 0.72,13.36 2.87,22.27 7.72,26.51 4.63,4.06 14.24,6.68 27.88,7.24 42.14,1.72 84.29,2.86 126.42,3.97 16.61,0.43 27.61,3.4 33.24,9.88 5.05,5.81 8.21,18.94 8.91,38.56 0.48,13.26 1.33,26.41 1.77,39.53 0.74,21.47 -1.03,36.26 -7.12,44.23 -6.36,8.29 -17.23,12.09 -34.42,11.57 -41.55,-1.26 -82.52,-2.59 -123.44,-4.35 -12.48,-0.52 -21.29,1.41 -25.53,5.43 -4.65,4.4 -6.44,12.65 -5.93,25.19zm614.87 -124.49c3.32,65.32 6.83,130.75 9.5,195.96 2.65,65.17 4.29,130.54 8.32,195.82 1.9,30.99 7.68,53.51 15.42,67.86 7.67,14.2 20.96,27.25 40.96,39.29 15.59,9.39 26.67,17.97 32.64,24.82 5.89,6.77 10.77,15.56 12.46,26.51 8.99,58.12 -78.34,89.09 -228.51,89.79 -80.7,0.37 -139.4,-7.19 -182.19,-20.61 -15.95,-5 -27.87,-13.06 -39.17,-24.46 -11.24,-11.36 -17.97,-24.16 -20.19,-38.45 -1.92,-12.23 -0.95,-21.35 2.96,-27.96 3.78,-6.39 14.97,-16.77 33.24,-31.33 12.56,-10.01 19.93,-26.67 23.16,-49.54 3.29,-23.28 3.99,-57.83 1.77,-103.88 -0.72,-14.92 -2.97,-42.56 -5.93,-83.03 -2.95,-40.37 -5.7,-64.05 -7.13,-70.73 -3.89,-18.25 -16.57,-32.79 -39.76,-42.78 -29.01,-12.53 -43.72,-30.52 -44.52,-54.01 -0.97,-28.07 16.54,-49.11 52.24,-62.65 49.75,-18.86 103.95,-34.92 161.43,-48.94 57.07,-13.92 102.1,-21.63 133.54,-22.29 25.53,-0.52 38.35,12.91 39.76,40.61zm-159.64 -292.01c39.74,-0.91 71.95,5.71 96.74,19.65 25.07,14.11 39.06,33.59 41.55,58.45 3.44,34.43 -12.55,62.24 -46.3,83.27 -52.87,32.94 -118.11,50.09 -197.04,50.26 -33.23,0.06 -59.69,-6.52 -80.13,-18.92 -27.04,-16.4 -42.27,-38.45 -44.53,-67 -3.06,-38.44 21.87,-68.79 74.79,-90.63 54.5,-22.5 106.26,-33.97 154.92,-35.08zm664.14 222.11c81.3,-4.82 154.27,10.55 218.4,46.28 61.1,34.03 93.36,79.18 96.16,135.57 1.93,38.92 -10.38,71.49 -36.8,97.86 -24.61,24.58 -54,38.52 -90.21,41.23 -37.98,2.83 -67.04,-8.62 -87.25,-34.23 -6.48,-8.22 -16.23,-29.47 -29.67,-63.99 -14.43,-37.05 -39.19,-54.51 -73,-52.31 -25.53,1.65 -45.09,13.77 -61.13,36.4 -15.99,22.54 -23.27,49.63 -21.96,81.34 2.22,53.97 23.74,101.39 65.27,140.76 33.85,32.08 76.59,45.73 125.24,42.3 23.14,-1.62 41,-4.61 56.38,-9.53 15.46,-4.94 35.06,-14.41 59.35,-28.43 5.97,-3.44 13.06,-5.68 20.19,-6.27 15.41,-1.32 30.11,5.07 43.33,18.32 13.47,13.49 20.84,29.64 24.33,48.93 3.62,20.1 -0.03,42.05 -12.48,65.67 -12.48,23.73 -30.05,45.63 -55.79,63.99 -58.56,41.78 -148.92,64.26 -230.86,69.55 -93.74,6.04 -153,-18.26 -226.13,-68.21 -49.13,-33.56 -89.9,-70.06 -116.92,-113.29 -26.39,-42.21 -38.85,-90.63 -40.96,-143.65 -2.03,-50.84 6.78,-97.77 23.74,-140.64 16.86,-42.58 45.76,-81.78 83.09,-116.89 71.86,-67.55 160.88,-104.4 267.68,-110.76zm768.6 -52.3c83.06,-5.41 158.24,11.08 223.15,47 47.25,26.14 87.07,60.5 116.93,103.64 31.26,45.18 49.09,92.82 52.23,144.02 2.77,44.83 -7.28,87.25 -24.33,128.58 -16.78,40.65 -40.59,80.95 -78.34,118.71 -73.82,73.82 -199.93,118.7 -312.2,132.93 -109.1,13.84 -173.34,-7.34 -251.64,-60.03 -78.97,-53.11 -125.25,-125.99 -130.58,-220.78 -2.97,-52.72 5.32,-101.72 23.15,-146.42 17.77,-44.58 46.39,-85.13 84.27,-121.59 79.03,-76.08 177.46,-118.24 297.36,-126.06zm-43.93 154.97c-20.19,1.23 -36.47,9.84 -47.47,25.08 -10.94,15.14 -16.51,34.71 -14.84,58.33 1.88,26.38 8.66,61.76 21.37,106.05 12.81,44.63 27.15,83.86 45.1,116.9 18.83,34.68 46.29,49.75 78.34,45.91 40.35,-4.82 55.66,-31.44 49.86,-80.38 -4.27,-36.04 -10.46,-76.83 -23.15,-121.84 -12.81,-45.36 -27.63,-81.8 -43.92,-109.78 -16.33,-28.04 -38.63,-41.9 -65.29,-40.27z"/>
  <polygon class="fil4" points="13879.08,16135.32 13983.69,16342.96 14191.33,16447.56 13983.69,16552.16 13879.08,16759.81 13774.48,16552.16 13566.84,16447.56 13774.48,16342.96 "/>
  <polygon class="fil4" points="7162.2,15978.58 7266.81,16186.22 7474.45,16290.82 7266.81,16395.42 7162.2,16603.07 7057.6,16395.42 6849.96,16290.82 7057.6,16186.22 "/>
  <g style="clip-path:url(#id4)">
   <image x="5408.19" y="15286.6" width="1354.78" height="2122.09" xlink:href="Logogalatico_Images\Logogalatico_ImgID5.png"/>
  </g>
  <path class="fil5" d="M5469.51 15520.72c353.95,-103.66 708.89,-176.15 1064.62,-224.68l141.26 -9.44 53.91 1653.42 10.57 -0.34 8.62 264.43 11.96 41.98 0.54 16.67c-227.84,26.53 -455.37,62.45 -682.55,109.61l-9.28 -19.14 -61.17 -114.91c-18.33,-22.22 -49.74,-108.62 -76.42,-144.39l-72.12 -156.11 -34.22 -94.26 -63.5 -158.75 -30.4 -101.08 -39.75 -125.19 -26.46 -68.79c-13.71,-28.55 -8.48,-61.12 -23.21,-89.95l-34.98 -100.52 -2 -4.11c-5.02,-27.45 -13.21,-56.42 -22.47,-84.83l-1.81 -7.51 -25.37 -74.73 -1.37 -9.17c-0.12,-20.06 -2.78,-40.77 -5.78,-60.44l-6.64 -22.76 -11.26 -75.43 -21.53 -119.3 -24.08 -105.31 -12.6 -74.37c-0.48,-4.76 -1.18,-9.32 -2.07,-13.72 0.03,-8.44 0,-17.53 -0.44,-26.88z"/>
 </g>
</svg>
